# xmcd CD database file
#
# Track frame offsets:
#	150
#	20260
#	33782
#	60148
#	109745
#	137755
#	162590
#	203580
#	226745
#	243948
#
# Disc length: 3694 seconds
#
# Revision: 0
# Processed by: cddbd v1.5.2PL0 Copyright (c) Steve Scherf et al.
# Submitted via: CDex 1.51
#
DISCID=6f0e6c0a
DTITLE=Jim Ryan's Forward Energy Trio - FE3 Oakland
DYEAR=2006
DGENRE=Jazz
TTITLE0=Jumpin In
TTITLE1=Paper Flower
TTITLE2=Residuals
TTITLE3=Thru the Window
TTITLE4=Lost Doggie
TTITLE5=Crystal Night
TTITLE6=The Feast
TTITLE7=Aporetics
TTITLE8=Meatloaf
TTITLE9=Big Snake
EXTD=YEAR: 2006
EXTT0=
EXTT1=
EXTT2=
EXTT3=
EXTT4=
EXTT5=
EXTT6=
EXTT7=
EXTT8=
EXTT9=
PLAYORDER=
